# xmcd CD database file
#
# Track frame offsets:
#	150
#	15995
#	40066
#	58516
#	86918
#	98002
#	118237
#	135254
#	152546
#	165387
#	183563
#	195957
#
# Disc length: 2795 seconds
#
# Revision: 1
# Processed by: cddbd v1.5.2PL0 Copyright (c) Steve Scherf et al.
# Submitted via: CDex 1.70beta2
#
DISCID=880ae90c
DTITLE=Various Artist - Stony Plain - 40 Years of Stony Plain -Disc 03 of 03, Rarities and previously unreleased material
DYEAR=2016
DGENRE=Blues
TTITLE0=Duke Robillard - Ain't Gonna Do It
TTITLE1=Duke Robillard - Rehab
TTITLE2=Eric Bibb - Shingle By Shingle
TTITLE3=Eric Bibb - Wayfaring Stranger
TTITLE4=Maria Muldaur - In My Girlish Days
TTITLE5=Maria Muldaur - I Belong to the Band
TTITLE6=David Wilcox - Uptown Bump
TTITLE7=Sam Chatmon and His Barbeque Boys - I Hate that Train
TTITLE8=Sam Chatmon and His Barbeque Boys - All Night Long
TTITLE9=Bob Carpenter - Satan's Golden Chain
TTITLE10=Bob Carpenter - Mister Blue
TTITLE11=Big Walter Horton and Hot Cottage - Shakey's Edmonton Blues
EXTD=YEAR: 2016
EXTT0=
EXTT1=
EXTT2=
EXTT3=
EXTT4=
EXTT5=
EXTT6=
EXTT7=
EXTT8=
EXTT9=
EXTT10=
EXTT11=
PLAYORDER=
